<?xml version="1.0" encoding="utf-8"?>
<!-- Generator: Adobe Illustrator 16.0.0, SVG Export Plug-In . SVG Version: 6.00 Build 0)  -->
<!DOCTYPE svg PUBLIC "-//W3C//DTD SVG 1.1//EN" "http://www.w3.org/Graphics/SVG/1.1/DTD/svg11.dtd">
<svg version="1.1" id="Upload_Work" xmlns="http://www.w3.org/2000/svg" xmlns:xlink="http://www.w3.org/1999/xlink" x="0px"
	 y="0px" width="16px" height="16px" viewBox="0.5 0.5 16 16" enable-background="new 0.5 0.5 16 16" xml:space="preserve">
<rect x="0.5" y="0.5" fill="none" width="16" height="16"/>
<g>
	<path d="M13,7.5V7l0,0c0,0,0,0,0-0.001C13,4.515,10.984,2.5,8.5,2.5C6.014,2.5,4,4.515,4,6.999c0,0,0,0,0,0.001l0,0v0.5
		c-1.933,0-3.5,1.566-3.5,3.5c0,1.932,1.567,3.5,3.5,3.5h2.5c0.553,0,1-0.448,1-1v-2h-3l4-5l4,5h-3v2c0,0.552,0.447,1,1,1H13
		c1.934,0,3.5-1.566,3.5-3.499C16.5,9.066,14.934,7.5,13,7.5z"/>
</g>
</svg>
