<?xml version="1.0" encoding="utf-8"?>
<!-- Generator: Adobe Illustrator 16.0.0, SVG Export Plug-In . SVG Version: 6.00 Build 0)  -->
<!DOCTYPE svg PUBLIC "-//W3C//DTD SVG 1.1//EN" "http://www.w3.org/Graphics/SVG/1.1/DTD/svg11.dtd">
<svg version="1.1" id="Capa_1" xmlns="http://www.w3.org/2000/svg" xmlns:xlink="http://www.w3.org/1999/xlink" x="0px" y="0px"
	 width="16px" height="16px" viewBox="0 0 16 16" enable-background="new 0 0 16 16" xml:space="preserve">
<g>
	<path d="M7.999,9.75L1,4.498v7.494C1,11.994,1,11.996,1,12c0,0.553,0.448,1,1,1l0,0h12l0,0c0.553,0,1-0.447,1-1v-0.001V4.511
		L7.999,9.75z"/>
	<polygon points="13.683,2.999 2.337,3 8.001,7.25 	"/>
	<path fill="none" d="M16,0H0v16h16V0z M13.683,2.999L8.001,7.25L2.337,3L13.683,2.999z M15,12c0,0.553-0.447,1-1,1l0,0H2l0,0
		c-0.552,0-1-0.447-1-1c0-0.004,0-0.006,0-0.008V4.498L7.999,9.75L15,4.511V12L15,12z"/>
</g>
</svg>
